<svg xmlns="http://www.w3.org/2000/svg" aria-hidden="true" viewBox="44.944 366.742 800 156.404" style="max-height:500px" width="800" height="156.404"><path d="M312.745 435.762c-3.082 4.366 -8.732 12.456 -12.456 17.4 -1.862 2.568 -4.944 6.806 5.65 6.806h54.639s8.732 -11.75 16.18 -22.343c9.952 -13.676 0.642 -42.247 -35.441 -42.247H199.679l-24.848 33.579h134.189c7.448 -0.642 6.806 1.862 3.724 6.806m-40.449 31.717c-10.53 0 -7.384 -4.366 -5.522 -6.87 3.724 -4.366 9.31 -12.392 12.392 -16.758s3.146 -6.87 -3.082 -6.87h-61.509l-49.695 67.159h120.514c39.807 0 62.151 -27.352 68.957 -36.661zm78.331 36.597h70.883l26.709 -36.597H377.335c0.642 0 -26.709 36.597 -26.709 36.597m182.665 -109.342 -27.287 36.661h-31.717l27.352 -36.597H430.819l-47.255 63.949h172.713l47.255 -64.013zM453.162 504.141h70.819l26.709 -36.661H479.872zM64.205 481.734v7.448h98.812l5.586 -7.448zm114.928 -14.254H64.205v7.448h109.342zM64.205 504.013h88.218l5.586 -7.384H64.205zm666.709 -14.254H834.671v-7.448h-98.17zm-10.594 14.318H834.671v-7.512h-108.764zm26.709 -36.661 -5.586 7.448H834.671V467.416zm-92.52 -8.09 47.191 -64.013h-75.12l-47.255 64.013zm-80.835 8.09s-4.944 6.806 -7.448 10.53c-8.668 11.814 -1.284 26.132 27.994 26.132h113.644l26.774 -36.661z"/></svg>