<svg width="800" height="800" viewBox="0 -240 800 800" xmlns="http://www.w3.org/2000/svg"><g fill="none"><path fill="#E53238" d="M103.64 69.573C47.253 69.573.267 93.307.267 164.88c0 56.707 31.6 92.413 104.827 92.413 86.213 0 91.733-56.32 91.733-56.32h-41.76s-8.947 30.333-52.507 30.333c-35.467 0-60.973-23.773-60.973-57.067H201.2v-20.906c0-32.96-21.093-83.76-97.56-83.76m-1.453 26.72c33.773 0 56.787 20.507 56.787 51.253H42.493c0-32.64 30.04-51.253 59.693-51.253"/><path fill="#0064D2" d="M201.173.267v221.066c0 12.547-.907 30.173-.907 30.173h39.84s1.427-12.667 1.427-24.227c0 0 19.68 30.533 73.2 30.533 56.36 0 94.64-38.8 94.64-94.4 0-51.707-35.16-93.307-94.533-93.307-55.627 0-72.907 29.773-72.907 29.773V.267zm103.373 97.2c38.267 0 62.6 28.16 62.6 65.973 0 40.533-28.107 67.053-62.333 67.053-40.84 0-62.88-31.64-62.88-66.693 0-32.667 19.773-66.333 62.613-66.333"/><path fill="#F5AF02" d="M508.387 69.573c-84.827 0-90.267 46.067-90.267 53.427h42.213s2.213-26.893 45.147-26.893c27.88 0 49.493 12.667 49.493 37v8.667H505.48c-65.733 0-100.467 19.067-100.467 57.76 0 38.08 32.093 58.8 75.48 58.8 59.12 0 78.173-32.4 78.173-32.4 0 12.88 1 25.587 1 25.587h37.533s-1.453-15.733-1.453-25.813v-87.041c0-57.08-46.413-69.093-87.36-69.093m46.587 98.2v11.547c0 15.067-9.373 52.533-64.56 52.533-30.227 0-43.173-14.973-43.173-32.32 0-31.56 43.627-31.76 107.733-31.76"/><path fill="#86B817" d="M573.013 76.8h47.493l68.173 135.453L756.707 76.8h43.027L675.841 317.947h-45.133l35.747-67.227z"/></g></svg>