<svg xmlns="http://www.w3.org/2000/svg" width="800" height="364.119" viewBox="0 0 797.853 364.119" xml:space="preserve"><path style="fill:#ff5900" d="m643.447 83.417 31.963 35.226 30.772-35.226h65.708l-64.216 72.212 65.096 72.802h-68.359l-31.663-35.505-31.373 35.505h-66.008l64.527-72.502-64.527-72.513z" transform="translate(-.81 -.354)"/><path style="fill:#ff5900" d="M575.368 83.417v48.996h-73.081v44.961h73.081v51.057h-126.79V0h126.79v50.918h-73.081v32.5z" transform="translate(-.81 -.354)"/><path d="M395.095 0v93.485h-.59c-11.849-13.61-26.639-18.343-43.802-18.343-35.162 0-61.651 23.913-70.946 55.511-10.615-34.818-37.963-56.166-78.512-56.166-32.929 0-58.935 14.779-72.502 38.864V83.417H60.674V50.918h74.284V0H0v228.432h60.674v-96.018h60.481a91.2 91.2 0 0 0-2.769 22.582c0 47.644 36.407 81.088 82.859 81.088 39.068 0 64.817-18.343 78.427-51.776H227.67c-7.03 10.057-12.364 13.03-26.425 13.03-16.304 0-30.364-14.221-30.364-31.083h105.882c4.594 37.845 34.077 70.484 74.53 70.484 17.452 0 33.434-8.586 43.201-23.076h.59v14.79h53.483V0zM172.577 133.09c3.37-14.511 14.629-23.988 28.679-23.988 15.466 0 26.146 9.188 28.958 23.988zm190.05 60.567c-19.717 0-31.974-18.375-31.974-37.555 0-20.5 10.658-40.217 31.974-40.217 22.099 0 30.901 19.717 30.901 40.217 0 19.438-9.327 37.555-30.901 37.555m85.961 148.996v-81.861h45.229v6.107h-37.769v30.181h36.17v6.107h-36.17v33.337h39.455v6.118h-46.914zm52.313 0 22.056-29.398-20.919-27.809h8.479l17.076 22.722 16.733-22.722h8.479l-21.251 27.809 22.153 29.398h-8.586L526.8 318.332l-17.409 24.321zm67.157 21.466h-6.901v-61.597c0-5.656 0-11.409-.343-17.076h6.794l.225 8.597c4.282-6.794 9.939-9.95 18.429-9.95 17.634 0 25.201 14.576 25.201 29.945 0 15.391-7.567 29.967-25.201 29.967-7.921 0-14.135-3.048-18.203-9.617zm36.063-50.08c0-12.203-5.098-24.192-18.654-24.192-12.772 0-17.409 10.518-17.409 24.192s4.637 24.192 17.409 24.192c13.567 0 18.654-11.978 18.654-24.192m42.803-23.291c-11.42 0-15.391 9.617-15.391 19.556v32.349h-6.901v-40.378q0-8.329-.333-16.829h6.805l.44 8.254c3.392-6.547 9.059-9.606 16.626-9.606 1.02 0 2.147.107 3.166.225v6.901c-1.588-.247-2.834-.472-4.411-.472m12.858 24.536c0 12.88 6.096 23.505 18.643 23.505 9.713 0 14.243-6.44 15.939-12.88h6.558c-3.059 11.978-10.411 18.096-23.409 18.096-17.409 0-25.105-12.89-25.105-28.936 0-16.389 8.028-30.976 26.006-30.976 18.203 0 23.065 15.928 23.065 31.19zm.215-5.195h34.142c0-11.195-5.302-20.801-16.164-20.801-9.831-.011-16.626 7.449-17.978 20.801m68.413 33.916c-11.753 0-20.565-5.549-20.565-18.096h6.901c0 8.586 5.646 12.88 14.017 12.88 7.803 0 13.899-3.735 13.899-11.399 0-6.901-7.116-8.715-14.576-10.862-9.037-2.597-18.879-5.431-18.879-16.507 0-12.311 10.282-15.928 19.899-15.928 11.066 0 19.33 4.282 19.663 16.153h-6.901c-.333-6.773-5.195-10.615-12.547-10.615-5.764 0-12.772 2.254-12.772 9.713 0 6.794 7.009 8.715 14.468 10.744 9.059 2.479 18.998 5.195 18.998 16.282-.011 12.88-9.95 17.634-21.606 17.634m47.827 0c-11.763 0-20.575-5.549-20.575-18.096h6.901c0 8.586 5.646 12.88 14.028 12.88 7.803 0 13.899-3.735 13.899-11.399 0-6.901-7.127-8.715-14.586-10.862-9.037-2.597-18.869-5.431-18.869-16.507 0-12.311 10.282-15.928 19.899-15.928 11.066 0 19.33 4.282 19.663 16.153h-6.901c-.333-6.773-5.195-10.615-12.547-10.615-5.764 0-12.772 2.254-12.772 9.713 0 6.794 7.009 8.715 14.479 10.744 9.048 2.479 18.998 5.195 18.998 16.282-.021 12.88-9.971 17.634-21.616 17.634" style="fill:#2a007c" transform="translate(-.81 -.354)"/></svg>