<svg width="800" height="151.181" viewBox="0 0 800 151.181" fill="none" xmlns="http://www.w3.org/2000/svg">
  <g clip-path="url(#clip0_1475_14356)">
    <path d="M754.469 127.622c-13.644 0 -22.86 -15.206 -16.183 -27.622 4.888 -9.241 10.721 -17.902 16.365 -26.665 1.506 -2.406 1.411 -4.038 -0.094 -6.35 -5.077 -7.798 -9.972 -15.786 -14.86 -23.685 -7.055 -11.351 -3.294 -24.636 8.75 -29.449 7.71 -3.087 16.46 -0.674 21.26 6.835 8.088 12.605 15.994 25.512 23.893 38.211 1.883 3.087 3.767 6.161 5.739 9.241 0.85 1.348 1.033 2.501 0.094 3.95 -9.877 15.786 -19.66 31.666 -29.631 47.452 -3.672 5.581 -8.939 8.277 -15.332 8.088" fill="#000"/>
    <path d="M696.233 128.876c-13.638 0 -22.86 -15.206 -16.176 -27.628 4.888 -9.241 10.721 -17.902 16.365 -26.658 1.506 -2.406 1.411 -4.044 -0.094 -6.356 -5.077 -7.798 -9.972 -15.786 -14.86 -23.685 -7.055 -11.351 -3.294 -24.636 8.75 -29.449 7.71 -3.08 16.46 -0.674 21.26 6.835 8.088 12.611 15.994 25.512 23.893 38.211 1.883 3.087 3.761 6.161 5.739 9.241 0.844 1.348 1.033 2.507 0.094 3.95 -9.877 15.786 -19.66 31.666 -29.726 47.452 -3.483 5.487 -8.75 8.189 -15.244 8.088" fill="#000"/>
    <path d="M271.685 120.989c-8.649 0 -16.365 0.094 -24.17 -0.101 -1.039 0 -2.356 -1.638 -3.011 -2.885a1285.039 1285.039 0 0 1 -14.205 -24.737c-1.323 -2.406 -2.917 -3.37 -5.556 -3.175 -2.91 0.189 -5.921 0.283 -8.932 0 -3.2 -0.29 -4.328 0.668 -4.233 4.139 0.277 7.408 0.094 14.822 0.094 22.331v4.523c-7.433 0 -14.488 0.094 -21.449 -0.094 -0.661 0 -1.512 -1.254 -1.978 -2.022 -0.283 -0.58 -0.094 -1.449 -0.094 -2.217V33.587c0 -9.827 3.294 -13.191 12.888 -13.191 11.288 0 22.488 -0.189 33.77 0.189 19.855 0.775 34.809 17.329 33.587 37.065 -0.661 10.778 -5.077 19.635 -14.016 25.795 -2.261 1.543 -2.545 2.791 -1.134 5.102 5.461 9.241 10.728 18.671 16.088 28.013 0.661 1.153 1.222 2.406 2.356 4.428M211.679 55.622c0 4.044 -0.094 8.088 0.094 12.031 0.088 0.964 1.317 2.602 2.066 2.602 6.299 0.094 12.605 0.378 18.816 -0.391 7.244 -0.863 11.572 -6.639 11.572 -14.243 0 -7.509 -4.328 -13.191 -11.761 -14.054 -6.11 -0.769 -12.321 -0.58 -18.438 -0.479 -0.844 0 -2.255 1.732 -2.35 2.791 -0.094 3.943 0 7.792 0 11.742" fill="#000"/>
    <path d="M531.994 20.586h23.137v100.208h-22.954c-0.088 -1.449 -0.189 -2.696 -0.189 -4.044 0 -10.494 -0.088 -20.888 0 -31.376 0 -2.797 -0.844 -3.761 -3.572 -3.761 -9.972 0.101 -20.031 0.101 -30.009 0 -2.539 0 -3.477 0.775 -3.389 3.465 0.094 10.494 0.094 20.894 0.094 31.383v4.523c-7.521 0 -14.677 0 -21.82 -0.094 -0.567 0 -1.411 -1.153 -1.701 -1.921 -0.277 -0.775 -0.088 -1.739 -0.088 -2.602 0 -30.513 0.094 -61.027 -0.094 -91.54 0 -3.565 0.756 -4.913 4.422 -4.718 6.211 0.29 12.51 0.094 19.099 0.094v38.891c1.499 0.094 2.633 0.378 3.855 0.378 9.783 0 19.565 -0.088 29.354 0.101 3.194 0.094 3.95 -1.058 3.95 -4.139 -0.189 -10.205 -0.094 -20.409 -0.094 -30.614z" fill="#000"/>
    <path d="M60.58 20.491h23.143v100.491c-7.244 0 -14.205 0.094 -21.26 -0.094 -0.661 0 -1.789 -2.016 -1.89 -3.175 -0.183 -10.494 -0.277 -20.888 0 -31.383 0.101 -3.943 -1.216 -4.913 -4.888 -4.813 -9.121 0.189 -18.343 0.189 -27.465 0 -3.578 -0.094 -4.989 0.674 -4.8 4.718 0.283 10.299 0 20.693 0.189 30.992 0.094 3.087 -0.945 3.849 -3.861 3.754q-8.315 -0.283 -16.649 0c-2.444 0.094 -3.2 -0.769 -3.2 -3.276C0 86.236 0 54.671 -0.101 23.194c0.094 -2.217 0.945 -2.986 3.106 -2.891 5.644 0.101 11.383 0.195 17.027 0 2.728 -0.094 3.672 0.674 3.578 3.565 -0.189 10.299 -0.094 20.693 -0.094 30.992v4.334c1.411 0.189 2.444 0.384 3.477 0.384 9.883 0 19.761 -0.094 29.638 0.094 2.822 0 3.855 -0.769 3.855 -3.843 0 -11.654 0.094 -23.206 0.094 -35.332" fill="#000"/>
    <path d="M644.68 20.687c0 6.45 0.094 12.894 -0.183 19.25 0 0.674 -2.072 1.827 -3.2 1.827 -11.383 0.101 -22.765 0.101 -34.148 0.101 -3.011 0 -5.928 0.189 -8.939 0 -2.822 -0.195 -3.666 1.058 -3.572 3.748 0.189 3.565 0.189 7.03 0 10.589 -0.189 2.986 0.844 3.95 3.761 3.95 11.099 -0.094 22.299 0.094 33.392 -0.094 3.767 -0.101 5.083 0.957 4.8 4.813 -0.378 4.233 -0.189 8.567 0 12.8 0.094 2.696 -0.844 3.465 -3.389 3.465 -11.477 -0.094 -23.043 0.094 -34.52 -0.094 -3.106 0 -4.233 0.964 -4.044 4.139s0.277 6.35 0 9.43c-0.283 3.565 0.844 4.819 4.51 4.724 13.732 -0.195 27.471 0 41.203 -0.195 3.483 0 4.517 1.058 4.328 4.523a151.181 151.181 0 0 0 0 14.343c0.094 2.306 -0.75 3.08 -3.005 2.98 -19.943 -0.094 -39.798 0 -59.742 -0.094 -6.583 0 -10.627 -4.139 -10.627 -10.879 -0.094 -26.375 -0.094 -52.649 0 -79.024 0 -6.646 3.95 -10.683 10.35 -10.683 20.132 -0.101 40.353 0 60.485 0 0.756 0 1.506 0.189 2.539 0.378" fill="#000"/>
    <path d="M173.386 41.858h-9.317c-12.227 0 -24.46 0.101 -36.687 -0.094 -2.822 0 -4.05 0.769 -3.861 3.754 0.189 3.559 0.189 7.024 0 10.583 -0.189 2.992 0.85 3.95 3.767 3.95 11.383 -0.094 22.765 0 34.142 -0.094 3.017 0 4.239 0.769 4.05 4.044 -0.283 4.428 -0.189 8.857 0 13.184 0.189 2.986 -0.756 3.95 -3.761 3.95 -11.288 -0.189 -22.488 0.094 -33.776 -0.094 -3.288 -0.101 -4.794 0.769 -4.51 4.428 0.277 3.364 0.189 6.835 0 10.205 -0.189 2.784 0.939 3.748 3.666 3.654 14.016 -0.094 27.937 0.094 41.953 -0.094 3.672 -0.101 4.706 1.153 4.517 4.718 -0.277 4.813 -0.094 9.524 0 14.337 0 2.123 -0.756 2.797 -2.822 2.797 -20.132 -0.101 -40.265 0 -60.485 -0.101 -5.928 0 -10.066 -4.233 -10.066 -10.299 -0.094 -26.759 -0.094 -53.417 0 -80.183 0 -6.066 3.95 -10.104 9.688 -10.205 20.321 -0.094 40.548 -0.094 60.863 0 0.945 0 2.633 0.964 2.633 1.638 0.094 6.551 0 12.995 0 19.924" fill="#000"/>
    <path d="M380.057 111.162c2.917 -6.639 5.55 -12.8 8.378 -19.25 4.51 1.732 8.649 3.565 12.976 4.913 8.088 2.501 16.183 5.002 24.743 2.98 2.255 -0.573 4.699 -1.827 6.299 -3.465 3.011 -3.175 1.701 -8.661 -2.822 -10.488 -6.677 -2.797 -13.732 -4.913 -20.504 -7.509 -4.706 -1.827 -9.411 -3.754 -13.833 -6.161 -18.627 -10.299 -16.932 -36.775 1.039 -46.973 8.838 -5.008 18.343 -6.45 28.315 -5.776 11.666 0.863 22.765 4.233 33.676 10.009 -2.539 5.965 -4.888 11.843 -7.528 17.518 -0.277 0.58 -2.539 0.479 -3.761 0.189 -7.244 -1.921 -14.394 -4.328 -21.827 -5.77 -4.139 -0.769 -8.561 -0.101 -12.787 0.573 -3.2 0.485 -5.65 2.602 -5.928 6.356 -0.283 3.559 1.594 5.776 4.605 6.929 8.466 3.175 17.027 5.871 25.398 9.241 4.422 1.827 8.945 4.044 12.517 7.124 15.332 13.09 11.288 37.058 -7.622 45.915 -11.194 5.291 -22.954 5.581 -34.809 3.175 -9.216 -1.921 -18.06 -4.712 -26.526 -9.531" fill="#000"/>
    <path d="M369.613 57.745c-3.861 -17.808 -13.833 -30.614 -31.137 -36.094 -17.972 -5.776 -34.715 -2.797 -48.447 10.872 -13.833 13.764 -17.033 31.282 -13.455 50.148 6.866 36.869 45.72 48.901 72.151 32.057 15.811 -10.016 21.921 -25.606 22.394 -45.82 -0.283 -2.406 -0.567 -6.835 -1.512 -11.162m-33.587 37.153c-11.943 8.472 -28.126 3.565 -33.77 -10.104 -3.855 -9.342 -3.855 -18.866 0 -28.208 3.855 -9.43 12.605 -14.822 22.387 -14.047 10.161 0.769 17.972 7.213 20.598 17.134 0.945 3.654 1.323 7.408 1.978 11.068 -0.567 9.625 -3.005 18.381 -11.194 24.157" fill="#000"/>
  </g>
  <defs>
    <clipPath id="clip0_1475_14356">
      <path width="127" height="24" fill="white" d="M0 0H800V151.181H0V0z"/>
    </clipPath>
  </defs>
</svg>
