<svg xmlns="http://www.w3.org/2000/svg" style="max-height: 500px" viewBox="0 0 800 823.045" aria-hidden="true" width="800" height="823.045"><path d="M409.465 58.789c-36.273 0 -72.663 3.292 -113.933 9.465 -64.198 9.641 -129.336 29.394 -170.841 51.617l-8.524 4.586v378.66l3.175 17.637c3.762 20.694 12.052 46.326 20.047 62.316 13.757 27.337 37.743 56.32 60.67 73.427 28.689 21.34 98.883 58.201 186.537 98.001 11.758 5.35 22.869 9.7 24.691 9.759 10.229 0 149.089 -68.607 190.123 -94.18q84.362 -52.734 102.352 -151.205c3.116 -17.166 3.116 -17.637 3.116 -205.761v-188.713l-8.524 -4.586c-42.387 -22.751 -109.465 -42.74 -175.485 -52.322A764.256 764.256 0 0 0 409.465 58.789m141.035 64.198c57.084 0 128.689 2.234 134.156 5.644 1.176 0.705 1.587 49.5 1.587 181.658 0 152.028 -0.353 183.128 -2.116 196.708 -7.995 60.494 -36.743 107.76 -84.95 139.624 -21.399 14.109 -42.798 25.926 -86.596 47.737 -31.041 15.461 -99.118 47.266 -101.117 47.208 -0.353 0 -13.815 -5.879 -29.865 -13.11 -34.862 -15.697 -107.466 -51.558 -127.396 -63.022 -37.213 -21.34 -59.024 -38.683 -75.191 -59.612 -20.694 -26.808 -30.805 -49.206 -38.213 -84.597 -3.175 -14.991 -3.233 -17.284 -3.704 -132.216l-0.47 -116.99 12.522 -10.935a558.495 558.495 0 0 1 107.231 -72.487c68.489 -34.803 139.741 -54.262 232.687 -63.668 12.463 -1.176 35.45 -1.764 61.376 -1.94zm49.089 163.198q-8.76 0.059 -16.461 1.881c-22.457 5.291 -40.27 18.636 -49.206 36.861a44.68 44.68 0 0 0 -5.409 21.752c-1.764 34.568 10.7 53.792 51.499 78.895 25.162 15.52 32.804 25.103 32.922 41.446 0 8.289 -0.529 10.288 -4.233 15.52 -5.879 8.289 -13.286 11.875 -26.044 12.522q-18.989 0.941 -39.447 -11.405a117.578 117.578 0 0 0 -9.877 -5.467c-0.412 0 -0.823 9.7 -0.823 21.458v21.458l10.641 4.879c21.105 9.759 44.68 12.816 64.962 8.524 25.808 -5.467 45.267 -23.751 51.734 -48.56 2.763 -10.406 2.822 -33.039 0.235 -42.857 -5.761 -21.576 -18.577 -34.862 -55.673 -57.79 -21.046 -12.992 -27.748 -21.399 -27.748 -34.568 0 -7.466 2.234 -12.522 8.054 -18.048 12.64 -11.993 37.801 -10.641 58.495 3.116 4.703 3.116 8.936 5.703 9.406 5.703s0.882 -8.936 0.882 -19.871v-19.929l-5.526 -3.645c-11.64 -7.701 -30.923 -12.169 -48.383 -11.875M417.402 287.772H411.523c-8.995 0.588 -20.341 1.764 -25.279 2.939 -12.64 3.116 -28.571 9.524 -32.51 13.169l-3.41 3.116v167.137c0 91.887 0.47 167.549 0.999 168.019 0.529 0.588 11.581 0.823 24.515 0.588l23.574 -0.588 0.353 -53.498 0.353 -53.439h20.988c18.46 0.059 22.163 -0.588 30.57 -3.233 33.98 -11.758 55.85 -44.915 62.375 -94.885 2.116 -15.873 0.882 -56.026 -2.058 -69.077 -5.761 -25.279 -13.815 -41.387 -27.866 -55.614 -17.931 -18.048 -37.919 -25.691 -66.784 -25.162zm-98.413 2.469 -24.515 0.588 -24.574 0.588 -0.705 98.06 -0.705 98.06 -3.939 2.881c-2.939 2.234 -6.643 3.057 -15.638 3.469 -10.17 0.588 -12.64 0 -18.225 -2.763 -5.115 -2.646 -7.172 -4.938 -10.582 -11.875l-4.292 -8.524 -0.705 -89.653 -0.764 -89.712h-48.383v91.828c0 83.892 0.235 92.593 2.587 101.117 7.819 28.336 23.986 44.386 50.794 50.5 13.404 3.057 45.15 1.999 61.964 -1.999 7.055 -1.764 18.225 -5.761 24.868 -9.112l12.111 -5.996 0.353 -113.521 0.353 -113.58zm102.998 34.392q22.163 0.176 32.216 22.928c5.879 13.345 7.819 28.571 7.76 60.141 -0.059 31.687 -1.411 41.211 -7.819 58.377 -4.115 10.758 -16.285 23.516 -24.985 26.044a58.789 58.789 0 0 1 -26.514 0l-3.939 -1.411V329.924l5.291 -2.293a58.789 58.789 0 0 1 14.991 -2.939h2.998z"/></svg>